<svg width="53" height="50" viewBox="0 0 53 50" fill="none" xmlns="http://www.w3.org/2000/svg">
<path d="M51.0599 31.7555C48.5663 27.7974 45.1505 24.4984 41.1027 22.1337V21.1552C41.1095 15.5969 39.4972 10.1541 36.4571 5.48932C32.809 -0.0282362 25.3521 -1.56051 19.8048 2.07142C18.4384 2.96497 17.2668 4.13031 16.3684 5.48932C13.3351 10.1575 11.7263 15.6003 11.7331 21.1552V22.1439C7.69214 24.5086 4.28653 27.8042 1.79637 31.7555C-1.69464 37.3749 0.0576931 44.7441 5.70753 48.2164C7.57942 49.3647 9.73141 49.9831 11.9278 50.0001H12.0815C17.1063 50.0001 22.0422 48.7022 26.4111 46.239C30.7902 48.709 35.7398 50.0069 40.7748 50.0001H40.9387C47.5791 49.9423 52.9147 44.5369 52.8532 37.9321C52.8327 35.7475 52.2145 33.6139 51.0599 31.7555ZM37.7688 24.5256L37.7039 24.9706V25.2526L37.6048 25.7521V25.9899C37.6048 26.2277 37.5058 26.4689 37.4511 26.7068V26.8359C37.4511 27.0329 37.3623 27.2266 37.3077 27.4236L37.2428 27.6852C37.2428 27.8381 37.1676 27.991 37.1232 28.1405C37.0788 28.29 37.0583 28.3376 37.0344 28.4225L36.9046 28.8472L36.8055 29.1394L36.6757 29.5403L36.5664 29.8461C36.5118 29.9752 36.4674 30.1077 36.4229 30.2266C36.3785 30.3455 36.3341 30.4338 36.3034 30.5425C36.2726 30.6513 36.2043 30.794 36.1497 30.9129L36.0199 31.2187L35.8559 31.5992L35.7261 31.8914L35.5417 32.2617C35.5417 32.3602 35.4528 32.4587 35.3982 32.5539C35.3435 32.649 35.2786 32.8053 35.2137 32.9344L35.0703 33.2062L34.8517 33.5969L34.7082 33.8483L34.4349 34.3172L34.3359 34.4803C34.2163 34.6875 34.0831 34.8948 33.9533 35.0986C33.9055 35.1564 33.8679 35.2175 33.8337 35.2821L33.54 35.7068L33.376 35.9446L33.113 36.3047C33.113 36.3931 32.9934 36.4678 32.9285 36.5561L32.6757 36.8925L32.4674 37.1439C32.3786 37.2526 32.3034 37.3613 32.2044 37.4701L31.996 37.7215L31.733 38.0273C31.6578 38.1156 31.5895 38.2005 31.5144 38.2787L31.2308 38.5844L31.0122 38.8223L30.7185 39.1281L30.4998 39.3557L30.1924 39.6479L29.9636 39.8653L29.6356 40.1711L29.417 40.3681L29.0447 40.6943L28.8466 40.8574L28.2898 41.3126L27.6886 41.7679L27.5041 41.9106L27.0874 42.2028L26.8483 42.3659L26.5409 42.5731L26.2471 42.3659L26.008 42.2028L25.417 41.9106L25.2326 41.7815C24.8398 41.4893 24.4469 41.1734 24.0644 40.8574L23.9004 40.7045C23.7604 40.5992 23.6305 40.4871 23.5076 40.3681L23.2992 40.1847L22.9508 39.8687L22.7424 39.6615L22.4247 39.3557L22.2061 39.1281L21.8987 38.8223L21.6903 38.5946C21.5913 38.4859 21.4922 38.3874 21.4068 38.2787L21.1882 38.0408L20.9149 37.7147L20.7066 37.4769L20.4435 37.1507L20.2454 36.8993L19.9824 36.5527C19.9824 36.478 19.8629 36.3999 19.8082 36.3149C19.7535 36.23 19.6237 36.0771 19.5349 35.9446C19.4461 35.8121 19.4256 35.7917 19.3812 35.717C19.2753 35.5777 19.1763 35.4316 19.0875 35.2821L18.9679 35.1088C18.8381 34.9016 18.7049 34.6943 18.5853 34.4905L18.4863 34.3274L18.2027 33.8585L18.0729 33.6071L17.8543 33.2164L17.7655 32.9446L17.5674 32.5641C17.5674 32.4757 17.4786 32.367 17.4239 32.2719L17.2497 31.9117L17.1063 31.6297L16.9423 31.2594L16.8125 30.9536L16.669 30.5392C16.669 30.4406 16.5939 30.3319 16.5495 30.2334C16.5051 30.1348 16.4504 29.982 16.406 29.8529C16.3616 29.7237 16.3309 29.6456 16.2967 29.5369L16.1669 29.1564L16.0678 28.8404L15.938 28.4395C15.938 28.341 15.8834 28.2322 15.8492 28.1337C15.8151 28.0352 15.7741 27.8415 15.7297 27.6988C15.7092 27.6071 15.6853 27.5154 15.6545 27.427L15.5247 26.863V26.7102C15.4701 26.4723 15.4154 26.2311 15.371 25.9831V25.7453C15.371 25.6705 15.3163 25.4191 15.2822 25.256C15.248 25.0929 15.2822 25.059 15.2822 24.9638L15.2173 24.5188V23.9106L15.5008 23.7679L15.8185 23.615L16.2215 23.4418L16.529 23.3126L17.0004 23.1156L17.2395 23.0171L17.95 22.7555L18.213 22.6671L18.6844 22.5142L18.9918 22.4157L19.4188 22.2866L19.7467 22.1983L20.1737 22.0794L20.5016 22.0046L20.9184 21.9061L21.0482 21.8415L21.4751 21.7532L21.8133 21.6886L22.2403 21.6241L22.5785 21.5697L23.0054 21.5052H29.8577L30.2949 21.5697L30.6228 21.6241L31.06 21.6886L31.388 21.7532L31.8252 21.8415L32.1429 21.9163L32.5801 22.0148L32.8978 22.0895L33.3453 22.2085L33.639 22.2968L34.1104 22.4395L34.3837 22.5142L34.92 22.6977L35.1044 22.7623C35.3572 22.837 35.5963 22.9355 35.8354 23.0239L35.9789 23.0884C36.1736 23.153 36.3615 23.2311 36.5459 23.316L36.7987 23.4248L37.2462 23.6218L37.5297 23.7509L37.8371 23.9038V24.2096L37.7722 24.5256H37.7688ZM19.0021 7.13031C21.6733 3.04991 27.166 1.89815 31.2684 4.555C32.3034 5.22431 33.1847 6.10087 33.8576 7.13031C36.4605 11.1394 37.8918 15.7872 37.9908 20.5573H37.8815L37.6287 20.4485L37.1027 20.2413L36.8294 20.1326L36.3478 19.8948L36.0848 19.7962L35.4836 19.5992L35.2547 19.5346L34.4554 19.2968L34.271 19.2424L33.6595 19.0794L33.376 19.0148L32.8397 18.8959L32.5459 18.8211L31.9994 18.7124L31.7261 18.6581L31.0361 18.5493L30.8824 18.5833L30.0626 18.4644H29.8235C29.6288 18.4304 29.4307 18.41 29.2326 18.3999H23.6032C23.4051 18.41 23.207 18.4338 23.0123 18.4644H22.7732L21.9534 18.5833H21.8236L21.1336 18.7022H20.85L20.3137 18.8211L20.0063 18.8857L19.47 19.0046L19.1865 19.0794C18.985 19.1235 18.7834 19.1779 18.5853 19.2424L18.3872 19.2968L17.5879 19.5244L17.4034 19.589L16.8022 19.7962L16.529 19.8948L16.0166 20.0782L15.7331 20.1869L15.2207 20.3942L14.9577 20.5029H14.8586C14.9679 15.7532 16.4026 11.1258 19.0021 7.14051V7.13031ZM12.0815 46.8472H11.9381C7.0363 46.8166 3.08756 42.8415 3.1183 37.9627C3.12855 36.3353 3.58969 34.7453 4.45049 33.3625C6.41119 30.2402 9.02091 27.5731 12.102 25.5346V25.8404L12.2011 26.3942C12.2079 26.4893 12.2079 26.5811 12.2011 26.6762C12.2011 26.8393 12.2762 27.0125 12.3104 27.1858L12.3753 27.4576L12.5051 28.0216C12.5051 28.0861 12.5051 28.1643 12.5597 28.2288C12.6246 28.4905 12.6895 28.7385 12.7681 29.0001V29.119L12.9662 29.7509C12.9662 29.8393 13.0209 29.914 13.0414 30.0023C13.0619 30.0907 13.1609 30.3387 13.2156 30.512L13.3146 30.7736C13.3693 30.9468 13.4342 31.1201 13.4991 31.2832C13.564 31.4463 13.5538 31.4463 13.5879 31.521L13.8612 32.1835V32.2481L14.1789 32.965L14.2779 33.1722C14.3531 33.3455 14.4419 33.5086 14.517 33.6818L14.6366 33.9197C14.7254 34.0828 14.8005 34.2458 14.8894 34.3987L15.0089 34.6365L15.2924 35.1598L15.3915 35.333C15.5213 35.5607 15.6545 35.7883 15.7946 36.0057C15.8151 36.0499 15.839 36.0907 15.8697 36.1247C15.979 36.3081 16.0883 36.495 16.2079 36.6784L16.3513 36.8959L16.6588 37.341L16.8125 37.5686L17.1302 38.0035L17.2839 38.2107C17.4273 38.4078 17.5674 38.6014 17.7211 38.7883L18.2232 39.3965C18.2676 39.461 18.3189 39.5188 18.377 39.5697L18.739 40.0046L18.9235 40.2119L19.2856 40.6026L19.47 40.7996C19.5998 40.9525 19.7433 41.0918 19.8868 41.2345L20.0166 41.3772L20.5836 41.931L20.7032 42.0397L21.1745 42.4644L21.3727 42.6479L21.7894 42.9944L21.9978 43.1779L22.435 43.5244L22.6331 43.6773C22.8415 43.8506 23.0499 44.0035 23.2685 44.1666C19.7877 45.8755 15.9654 46.786 12.0849 46.8302L12.0815 46.8472ZM48.6551 42.2606C47.1283 45.0907 44.1565 46.8574 40.9285 46.8472H40.7748C36.8363 46.8472 32.949 45.9604 29.4068 44.2481L30.0421 43.7589L30.2266 43.6162L30.6638 43.256L30.8824 43.0726L31.2992 42.7124L31.4836 42.5493L31.9652 42.1043L32.0746 42.0057L32.6553 41.4418L32.7748 41.3228L33.2018 40.8778L33.376 40.6807C33.5058 40.5516 33.6288 40.4191 33.7483 40.2798L33.9225 40.0827C34.0523 39.9299 34.1856 39.7906 34.3051 39.6377L34.4486 39.4746L34.9507 38.8563L35.4084 38.2379C35.4631 38.1801 35.5109 38.119 35.5519 38.0544L35.8798 37.5992L36.0335 37.3817C36.1326 37.2288 36.2419 37.076 36.341 36.9129L36.4708 36.7158C36.6006 36.5188 36.7235 36.3353 36.8328 36.1382L36.8978 36.0397L37.3008 35.3534L37.3896 35.2005L37.6834 34.6569L37.803 34.4395L38.0557 33.9401L38.165 33.7124C38.2538 33.5392 38.3392 33.3659 38.4178 33.179C38.452 33.1213 38.4827 33.0601 38.5066 32.9955L38.8345 32.2685L39.1181 31.5822C39.1181 31.5074 39.1181 31.4293 39.1932 31.3545C39.2684 31.1847 39.3333 31.0114 39.3913 30.8313C39.4255 30.7498 39.4562 30.6649 39.4801 30.5799L39.6646 30.0567C39.6851 29.9752 39.709 29.8936 39.7397 29.8189L39.9379 29.1666V29.0578C40.0028 28.8064 40.0813 28.5482 40.1462 28.2866V28.0895C40.1462 28.025 40.2453 27.709 40.2897 27.512C40.2965 27.4236 40.2965 27.3387 40.2897 27.2504C40.2897 27.0771 40.3648 26.9038 40.399 26.717C40.4058 26.6252 40.4058 26.5369 40.399 26.4452C40.522 26.2583 40.6313 26.0612 40.7269 25.8574C40.7338 25.786 40.7338 25.7113 40.7269 25.6399V25.5652C43.8046 27.6071 46.4143 30.2741 48.3785 33.3931C50.1103 36.0839 50.2196 39.5018 48.662 42.2979V42.2538L48.6551 42.2606Z" fill="url(#paint0_linear_1759_6558)"/>
<defs>
<linearGradient id="paint0_linear_1759_6558" x1="-0.000376166" y1="25.0488" x2="52.9284" y2="25.0488" gradientUnits="userSpaceOnUse">
<stop stop-color="#EBA16B"/>
<stop offset="1" stop-color="#DE5C58"/>
</linearGradient>
</defs>
</svg>
